# xmcd CD database file generated by Grip 2.95
# 
# Track frame offsets:
#       150
#       14726
#       29997
#       48222
#       61959
#       75980
#       92634
#       107293
#       120125
#       135554
#       155249
#       168887
# 
# Disc length: 2447 seconds
# 
# Revision: 3
# Processed by: cddbd v1.4b42PL0 Copyright (c) Steve Scherf et al.
# Submitted via: Grip 2.95
# 
DISCID=8e098d0c
DTITLE=Various Artist - Country and Mountain Sampler
DYEAR=1900
DGENRE=
TTITLE0=Wildwood Flower - arranged by Craig Duncan
TTITLE1=Rocky Top - F. Bryant, B. Bryant
TTITLE2=Yankee Doodle Boy/You're a Grand Old Flag - arranged by Craig Duncan
TTITLE3=Morning Has Broken - arranged by Jim Hendricks
TTITLE4=Country Road
TTITLE5=Go Tell It on the Mountain - arranged by Jim Hendricks
TTITLE6=Ragtime Annie - arranged by Craig Duncan
TTITLE7=The Lily of the Valley - arranged by Craig Duncan
TTITLE8=Red Wing - arranged by Craig Duncan
TTITLE9=Green, Green Grass of Home - Curly Putnam
TTITLE10=Church in the Wildwood - arranged by Jim Hendricks
TTITLE11=America - arranged by Craig Duncan
EXTD=
EXTT0=
EXTT1=
EXTT2=
EXTT3=
EXTT4=
EXTT5=
EXTT6=
EXTT7=
EXTT8=
EXTT9=
EXTT10=
EXTT11=
PLAYORDER=
